<svg width="512" height="512" viewBox="0 0 512 512" fill="none" xmlns="http://www.w3.org/2000/svg">
  <rect width="512" height="512" rx="112" fill="url(#gradient)"/>
  <defs>
    <linearGradient id="gradient" x1="0" y1="0" x2="512" y2="512">
      <stop offset="0%" stop-color="#8b5cf6"/>
      <stop offset="100%" stop-color="#6366f1"/>
    </linearGradient>
  </defs>
  <path d="M256 128C185.31 128 128 185.31 128 256C128 326.69 185.31 384 256 384C326.69 384 384 326.69 384 256C384 185.31 326.69 128 256 128ZM256 352C203.32 352 160 308.68 160 256C160 203.32 203.32 160 256 160C308.68 160 352 203.32 352 256C352 308.68 308.68 352 256 352Z" fill="white"/>
  <path d="M256 192C220.72 192 192 220.72 192 256C192 291.28 220.72 320 256 320C291.28 320 320 291.28 320 256C320 220.72 291.28 192 256 192ZM256 288C238.33 288 224 273.67 224 256C224 238.33 238.33 224 256 224C273.67 224 288 238.33 288 256C288 273.67 273.67 288 256 288Z" fill="white"/>
  <circle cx="256" cy="256" r="32" fill="white"/>
</svg>
